<?xml version="1.0" encoding="UTF-8"?>
<svg xmlns="http://www.w3.org/2000/svg" viewBox="0 0 720 2200" width="720" height="2200">
<defs>

<linearGradient id="bgGradient" x1="0" y1="0" x2="0" y2="1">
  <stop offset="0%" stop-color="#020611"/>
  <stop offset="20%" stop-color="#040C1E"/>
  <stop offset="42%" stop-color="#061328"/>
  <stop offset="70%" stop-color="#031021"/>
  <stop offset="100%" stop-color="#01030A"/>
</linearGradient>

<linearGradient id="waveFill" x1="0" y1="0" x2="0" y2="1">
  <stop offset="0%" stop-color="#2969E8"/>
  <stop offset="28%" stop-color="#184DB6"/>
  <stop offset="65%" stop-color="#0D2E74"/>
  <stop offset="100%" stop-color="#05142F"/>
</linearGradient>

<filter id="waveGlow" x="-60%" y="-60%" width="220%" height="220%">
  <feGaussianBlur stdDeviation="18" result="blur1"/>
  <feColorMatrix in="blur1" type="matrix" values="
    1 0 0 0 0
    0 1 0 0 0
    0 0 1 0 0
    0 0 0 1.9 0"/>
  <feMerge>
    <feMergeNode/>
    <feMergeNode in="SourceGraphic"/>
  </feMerge>
</filter>

<filter id="smallGlow" x="-50%" y="-50%" width="200%" height="200%">
  <feGaussianBlur stdDeviation="5"/>
</filter>

</defs>
<rect x="0" y="0" width="720" height="640" fill="#020611"/>
<g transform="translate(0,640)">

<rect x="0" y="0" width="720" height="1560" fill="url(#bgGradient)"/>

<!-- MAIN WAVE -->
<path
    d="M -40 1238 C 70 1210, 155 1218, 250 1262 C 325 1296, 395 1338, 472 1368 C 555 1402, 640 1406, 760 1362 L760 1560 L-40 1560 Z"
    fill="url(#waveFill)"/>

<!-- INNER SHADOW -->
<path
    d="M -40 1246 C 70 1218, 155 1226, 250 1268 C 325 1302, 395 1342, 472 1372 C 555 1404, 640 1407, 760 1364 L760 1560 L-40 1560 Z"
    fill="#04132F"
    opacity=".22"/>

<!-- MAIN GLOW -->
<path
    d="M -20 1238 C 70 1210, 155 1218, 250 1262 C 325 1296, 395 1338, 472 1368 C 555 1402, 640 1406, 760 1362"
    fill="none"
    stroke="#74A9FF"
    stroke-width="3.4"
    stroke-linecap="round"
    filter="url(#waveGlow)"
    opacity=".95"/>

<!-- SECOND GLOW -->
<path
    d="M -20 1238 C 70 1210, 155 1218, 250 1262 C 325 1296, 395 1338, 472 1368 C 555 1402, 640 1406, 760 1362"
    fill="none"
    stroke="#8EBBFF"
    stroke-width="1.8"
    stroke-linecap="round"
    opacity=".95"/>

<!-- BRIGHT CENTER ACCENT -->
<path
    d="M 250 1262 C 325 1296, 395 1338, 472 1368"
    fill="none"
    stroke="#CFE3FF"
    stroke-width="1.3"
    stroke-linecap="round"
    filter="url(#smallGlow)"
    opacity=".9"/>

<!-- SUBTLE LOWER HIGHLIGHT -->
<path
    d="M 10 1258 C 125 1232, 210 1244, 310 1286 C 390 1322, 470 1360, 560 1386"
    fill="none"
    stroke="#2B5DBA"
    stroke-width="0.8"
    opacity=".30"/>

<!-- BLOOM ALONG WAVE -->
<path
    d="M -20 1238 C 70 1210, 155 1218, 250 1262 C 325 1296, 395 1338, 472 1368 C 555 1402, 640 1406, 760 1362"
    fill="none"
    stroke="#BFD9FF"
    stroke-width=".8"
    opacity=".85"/>

</g>
</svg>
