<?xml version="1.0" encoding="UTF-8"?>
<svg xmlns="http://www.w3.org/2000/svg" viewBox="0 0 720 2200" width="720" height="2200">
<defs>

<linearGradient id="bgGradient" x1="0" y1="0" x2="0" y2="1">
  <stop offset="0%" stop-color="#FDFEFF"/>
  <stop offset="22%" stop-color="#F6FAFF"/>
  <stop offset="48%" stop-color="#EDF5FF"/>
  <stop offset="76%" stop-color="#E6F0FB"/>
  <stop offset="100%" stop-color="#DEEAF8"/>
</linearGradient>

<linearGradient id="waveFill" x1="0" y1="0" x2="0" y2="1">
  <stop offset="0%" stop-color="#D8EBFF"/>
  <stop offset="22%" stop-color="#C6E0FF"/>
  <stop offset="60%" stop-color="#A7CCFF"/>
  <stop offset="100%" stop-color="#8DBBFA"/>
</linearGradient>

<linearGradient id="waveHighlight" x1="0" y1="0" x2="1" y2="0">
  <stop offset="0%" stop-color="#FFFFFF"/>
  <stop offset="40%" stop-color="#FDFEFF"/>
  <stop offset="100%" stop-color="#EAF4FF"/>
</linearGradient>

<filter id="waveGlow" x="-60%" y="-60%" width="220%" height="220%">
  <feGaussianBlur stdDeviation="16" result="blur"/>
  <feColorMatrix in="blur" type="matrix" values="
    1 0 0 0 0
    0 1 0 0 0
    0 0 1 0 0
    0 0 0 1.8 0"/>
  <feMerge>
    <feMergeNode/>
    <feMergeNode in="SourceGraphic"/>
  </feMerge>
</filter>

<filter id="smallGlow" x="-50%" y="-50%" width="200%" height="200%">
  <feGaussianBlur stdDeviation="4"/>
</filter>

</defs>
<rect x="0" y="0" width="720" height="640" fill="#FDFEFF"/>
<g transform="translate(0,640)">

<rect x="0" y="0" width="720" height="1560" fill="url(#bgGradient)"/>

<!-- MAIN WAVE -->
<path
    d="M -40 1238 C 70 1212, 165 1222, 260 1260 C 340 1294, 410 1334, 492 1366 C 570 1398, 645 1402, 760 1362 L760 1560 L-40 1560 Z"
    fill="url(#waveFill)"
    opacity=".98"/>

<!-- INNER HIGHLIGHT -->
<path
    d="M -40 1246 C 70 1220, 165 1228, 260 1264 C 340 1296, 410 1336, 492 1366 C 570 1396, 645 1401, 760 1364 L760 1560 L-40 1560 Z"
    fill="#F8FCFF"
    opacity=".18"/>

<!-- LARGE GLOW -->
<path
    d="M -20 1238 C 70 1212, 165 1222, 260 1260 C 340 1294, 410 1334, 492 1366 C 570 1398, 645 1402, 760 1362"
    fill="none"
    stroke="#EAF5FF"
    stroke-width="3.4"
    stroke-linecap="round"
    filter="url(#waveGlow)"
    opacity=".96"/>

<!-- PRIMARY HIGHLIGHT -->
<path
    d="M -20 1238 C 70 1212, 165 1222, 260 1260 C 340 1294, 410 1334, 492 1366 C 570 1398, 645 1402, 760 1362"
    fill="none"
    stroke="url(#waveHighlight)"
    stroke-width="1.9"
    stroke-linecap="round"/>

<!-- BRIGHT CENTER ACCENT -->
<path
    d="M 260 1260 C 340 1294, 410 1334, 492 1366"
    fill="none"
    stroke="#FFFFFF"
    stroke-width="1.3"
    stroke-linecap="round"
    filter="url(#smallGlow)"
    opacity=".92"/>

<!-- LOWER REFLECTION -->
<path
    d="M 0 1268 C 110 1248, 205 1260, 320 1300 C 405 1332, 485 1360, 590 1388"
    fill="none"
    stroke="#AFCDF7"
    stroke-width=".9"
    opacity=".34"/>

</g>
</svg>
